<svg width="27" height="24" viewBox="0 0 27 24" fill="none" xmlns="http://www.w3.org/2000/svg">
<path fill-rule="evenodd" clip-rule="evenodd" d="M17.0147 1.39344L26.5607 10.9394C27.1464 11.5252 27.1464 12.4749 26.5607 13.0607L17.0147 22.6066C16.4289 23.1924 15.4792 23.1924 14.8934 22.6066C14.3076 22.0209 14.3076 21.0711 14.8934 20.4853L21.8787 13.5L1.5 13.5C0.671571 13.5 -2.07618e-06 12.8285 -1.93133e-06 12C-1.78649e-06 11.1716 0.671571 10.5 1.5 10.5L21.8787 10.5L14.8934 3.51477C14.3076 2.92898 14.3076 1.97923 14.8934 1.39344C15.4792 0.807658 16.4289 0.807658 17.0147 1.39344Z" fill="#1A1A1A"/>
</svg>
