<svg width="14" height="18" viewBox="0 0 14 18" fill="none" xmlns="http://www.w3.org/2000/svg">
<path fill-rule="evenodd" clip-rule="evenodd" d="M13.7216 11.3431L7.67216 17.7071C7.30094 18.0976 6.69907 18.0976 6.32784 17.7071L0.278421 11.3431C-0.0928017 10.9526 -0.0928017 10.3195 0.278421 9.92893C0.649644 9.53841 1.25152 9.53841 1.62274 9.92893L6.04943 14.5858L6.04943 1C6.04943 0.447715 6.47501 -3.28928e-07 7 -3.0598e-07C7.52499 -2.83032e-07 7.95058 0.447715 7.95058 1L7.95058 14.5858L12.3773 9.92893C12.7485 9.53841 13.3504 9.53841 13.7216 9.92893C14.0928 10.3195 14.0928 10.9526 13.7216 11.3431Z" fill="#1A1A1A"/>
</svg>
